<svg width="1086" height="1086" fill="none" xmlns="http://www.w3.org/2000/svg"><g filter="url(#filter0_f_10380_474)"><mask id="a" style="mask-type:alpha" maskUnits="userSpaceOnUse" x="295" y="287" width="496" height="533"><path fill-rule="evenodd" clip-rule="evenodd" d="M375.159 640.192c47.809 82.808 152.978 111.26 236.108 63.265 83.314-48.101 111.67-153.296 63.71-236.365-48.031-83.192-153.618-111.484-236.81-63.453l-46.125-79.892c127.314-73.505 289.321-30.095 362.826 97.219 73.576 127.436 29.717 288.948-97.475 362.383-127.375 73.54-288.913 29.778-362.126-97.032l79.892-46.125z" fill="url(#paint0_linear_10380_474)"/></mask><g filter="url(#filter1_ii_10380_474)" fill-rule="evenodd" clip-rule="evenodd" mask="url(#a)"><path d="M375.159 640.192c47.809 82.808 152.978 111.26 236.108 63.265 83.314-48.101 111.67-153.296 63.71-236.365-48.031-83.192-153.618-111.484-236.81-63.453l-46.125-79.892c127.314-73.505 289.321-30.095 362.826 97.219 73.576 127.436 29.717 288.948-97.475 362.383-127.375 73.54-288.913 29.778-362.126-97.032l79.892-46.125z" fill="url(#paint1_radial_10380_474)"/><path d="M375.159 640.192c47.809 82.808 152.978 111.26 236.108 63.265 83.314-48.101 111.67-153.296 63.71-236.365-48.031-83.192-153.618-111.484-236.81-63.453l-46.125-79.892c127.314-73.505 289.321-30.095 362.826 97.219 73.576 127.436 29.717 288.948-97.475 362.383-127.375 73.54-288.913 29.778-362.126-97.032l79.892-46.125z" fill="#1F2E7E" fill-opacity=".2"/></g><mask id="b" style="mask-type:alpha" maskUnits="userSpaceOnUse" x="391" y="420" width="250" height="267"><path fill-rule="evenodd" clip-rule="evenodd" d="M489.025 573.924c11.401 19.746 36.503 26.381 56.142 15.043l46.125 79.892c-63.522 36.674-145.146 15.298-182.159-48.81-37.151-64.347-14.272-145.276 49.01-181.812 63.522-36.675 145.146-15.299 182.159 48.809l-79.892 46.126c-11.401-19.747-36.503-26.382-56.142-15.043-19.879 11.477-26.506 36.287-15.243 55.795z" fill="url(#paint2_linear_10380_474)"/></mask><g filter="url(#filter2_ii_10380_474)" fill-rule="evenodd" clip-rule="evenodd" mask="url(#b)"><path d="M489.025 573.924c11.401 19.746 36.503 26.381 56.142 15.043l46.125 79.892c-63.522 36.674-145.146 15.298-182.159-48.81-37.151-64.347-14.272-145.276 49.01-181.812 63.522-36.675 145.146-15.299 182.159 48.809l-79.892 46.126c-11.401-19.747-36.503-26.382-56.142-15.043-19.879 11.477-26.506 36.287-15.243 55.795z" fill="url(#paint3_radial_10380_474)"/><path d="M489.025 573.924c11.401 19.746 36.503 26.381 56.142 15.043l46.125 79.892c-63.522 36.674-145.146 15.298-182.159-48.81-37.151-64.347-14.272-145.276 49.01-181.812 63.522-36.675 145.146-15.299 182.159 48.809l-79.892 46.126c-11.401-19.747-36.503-26.382-56.142-15.043-19.879 11.477-26.506 36.287-15.243 55.795z" fill="#1F2E7E" fill-opacity=".2"/></g></g><defs><filter id="filter0_f_10380_474" x="-20" y="-20" width="1125.99" height="1125.99" filterUnits="userSpaceOnUse" color-interpolation-filters="sRGB"><feFlood flood-opacity="0" result="BackgroundImageFix"/><feBlend in="SourceGraphic" in2="BackgroundImageFix" result="shape"/><feGaussianBlur stdDeviation="10" result="effect1_foregroundBlur_10380_474"/></filter><filter id="filter1_ii_10380_474" x="279.056" y="287.987" width="534.787" height="559.444" filterUnits="userSpaceOnUse" color-interpolation-filters="sRGB"><feFlood flood-opacity="0" result="BackgroundImageFix"/><feBlend in="SourceGraphic" in2="BackgroundImageFix" result="shape"/><feColorMatrix in="SourceAlpha" values="0 0 0 0 0 0 0 0 0 0 0 0 0 0 0 0 0 0 127 0" result="hardAlpha"/><feOffset dx="-16.211" dy="28.369"/><feGaussianBlur stdDeviation="34.447"/><feComposite in2="hardAlpha" operator="arithmetic" k2="-1" k3="1"/><feColorMatrix values="0 0 0 0 1 0 0 0 0 1 0 0 0 0 1 0 0 0 0.87 0"/><feBlend mode="lighten" in2="shape" result="effect1_innerShadow_10380_474"/><feColorMatrix in="SourceAlpha" values="0 0 0 0 0 0 0 0 0 0 0 0 0 0 0 0 0 0 127 0" result="hardAlpha"/><feOffset dx="23.275" dy="13.577"/><feGaussianBlur stdDeviation="13.577"/><feComposite in2="hardAlpha" operator="arithmetic" k2="-1" k3="1"/><feColorMatrix values="0 0 0 0 0.168627 0 0 0 0 0.180392 0 0 0 0 0.239216 0 0 0 0.9 0"/><feBlend mode="multiply" in2="effect1_innerShadow_10380_474" result="effect2_innerShadow_10380_474"/></filter><filter id="filter2_ii_10380_474" x="375.048" y="420.344" width="288.529" height="294.777" filterUnits="userSpaceOnUse" color-interpolation-filters="sRGB"><feFlood flood-opacity="0" result="BackgroundImageFix"/><feBlend in="SourceGraphic" in2="BackgroundImageFix" result="shape"/><feColorMatrix in="SourceAlpha" values="0 0 0 0 0 0 0 0 0 0 0 0 0 0 0 0 0 0 127 0" result="hardAlpha"/><feOffset dx="-16.211" dy="28.369"/><feGaussianBlur stdDeviation="34.447"/><feComposite in2="hardAlpha" operator="arithmetic" k2="-1" k3="1"/><feColorMatrix values="0 0 0 0 1 0 0 0 0 1 0 0 0 0 1 0 0 0 0.87 0"/><feBlend mode="lighten" in2="shape" result="effect1_innerShadow_10380_474"/><feColorMatrix in="SourceAlpha" values="0 0 0 0 0 0 0 0 0 0 0 0 0 0 0 0 0 0 127 0" result="hardAlpha"/><feOffset dx="23.275" dy="13.577"/><feGaussianBlur stdDeviation="13.577"/><feComposite in2="hardAlpha" operator="arithmetic" k2="-1" k3="1"/><feColorMatrix values="0 0 0 0 0.168627 0 0 0 0 0.180392 0 0 0 0 0.239216 0 0 0 0.9 0"/><feBlend mode="multiply" in2="effect1_innerShadow_10380_474" result="effect2_innerShadow_10380_474"/></filter><radialGradient id="paint1_radial_10380_474" cx="0" cy="0" r="1" gradientUnits="userSpaceOnUse" gradientTransform="matrix(169.30968 -108.49803 282.06649 440.16089 300.382 781.804)"><stop stop-color="#0A0D50" stop-opacity=".1"/><stop offset=".635" stop-color="#12126B" stop-opacity=".6"/><stop offset="1" stop-color="#12126B"/></radialGradient><radialGradient id="paint3_radial_10380_474" cx="0" cy="0" r="1" gradientUnits="userSpaceOnUse" gradientTransform="rotate(-32.649 1346.757 -368.941) scale(101.056 262.326)"><stop stop-color="#0A0D50" stop-opacity=".1"/><stop offset=".635" stop-color="#12126B" stop-opacity=".6"/><stop offset="1" stop-color="#12126B"/></radialGradient><linearGradient id="paint0_linear_10380_474" x1="198.511" y1="380.181" x2="509.88" y2="527.335" gradientUnits="userSpaceOnUse"><stop offset=".617" stop-opacity="0"/><stop offset="1"/></linearGradient><linearGradient id="paint2_linear_10380_474" x1="660.318" y1="475.258" x2="485.338" y2="551.63" gradientUnits="userSpaceOnUse"><stop offset=".516" stop-opacity="0"/><stop offset="1"/></linearGradient></defs></svg>