<svg width="658" height="658" fill="none" xmlns="http://www.w3.org/2000/svg"><g filter="url(#filter0_f_10380_486)"><mask id="a" style="mask-type:alpha" maskUnits="userSpaceOnUse" x="82" y="82" width="494" height="494"><circle cx="329" cy="329" r="246.384" fill="url(#paint0_linear_10380_486)"/></mask><g mask="url(#a)"><g filter="url(#filter1_ii_10380_486)"><path d="M473.578 329c0 79.849-64.73 144.579-144.578 144.579-79.849 0-144.579-64.73-144.579-144.579 0-79.848 64.73-144.578 144.579-144.578 79.848 0 144.578 64.73 144.578 144.578zm-223.482 0c0 43.578 35.326 78.904 78.904 78.904 43.578 0 78.904-35.326 78.904-78.904 0-43.577-35.326-78.904-78.904-78.904-43.578 0-78.904 35.327-78.904 78.904z" fill="url(#paint1_linear_10380_486)"/><path d="M473.578 329c0 79.849-64.73 144.579-144.578 144.579-79.849 0-144.579-64.73-144.579-144.579 0-79.848 64.73-144.578 144.579-144.578 79.848 0 144.578 64.73 144.578 144.578zm-223.482 0c0 43.578 35.326 78.904 78.904 78.904 43.578 0 78.904-35.326 78.904-78.904 0-43.577-35.326-78.904-78.904-78.904-43.578 0-78.904 35.327-78.904 78.904z" fill="#1F2E7E" fill-opacity=".2"/></g><g filter="url(#filter2_ii_10380_486)"><path d="M378.842 329c0 27.527-22.315 49.842-49.842 49.842-27.527 0-49.843-22.315-49.843-49.842 0-27.527 22.316-49.843 49.843-49.843 27.527 0 49.842 22.316 49.842 49.843zm-77.044 0c0 15.023 12.179 27.202 27.202 27.202 15.023 0 27.202-12.179 27.202-27.202 0-15.023-12.179-27.202-27.202-27.202-15.023 0-27.202 12.179-27.202 27.202z" fill="url(#paint2_linear_10380_486)"/><path d="M378.842 329c0 27.527-22.315 49.842-49.842 49.842-27.527 0-49.843-22.315-49.843-49.842 0-27.527 22.316-49.843 49.843-49.843 27.527 0 49.842 22.316 49.842 49.843zm-77.044 0c0 15.023 12.179 27.202 27.202 27.202 15.023 0 27.202-12.179 27.202-27.202 0-15.023-12.179-27.202-27.202-27.202-15.023 0-27.202 12.179-27.202 27.202z" fill="#1F2E7E" fill-opacity=".2"/></g><g filter="url(#filter3_iif_10380_486)"><path d="M575.384 329c0 136.074-110.31 246.384-246.384 246.384-136.074 0-246.384-110.31-246.384-246.384 0-136.074 110.31-246.385 246.384-246.385 136.074 0 246.384 110.311 246.384 246.385zm-438.731 0c0 106.23 86.117 192.347 192.347 192.347 106.231 0 192.347-86.117 192.347-192.347 0-106.231-86.116-192.347-192.347-192.347-106.23 0-192.347 86.116-192.347 192.347z" fill="url(#paint3_linear_10380_486)"/><path d="M575.384 329c0 136.074-110.31 246.384-246.384 246.384-136.074 0-246.384-110.31-246.384-246.384 0-136.074 110.31-246.385 246.384-246.385 136.074 0 246.384 110.311 246.384 246.385zm-438.731 0c0 106.23 86.117 192.347 192.347 192.347 106.231 0 192.347-86.117 192.347-192.347 0-106.231-86.116-192.347-192.347-192.347-106.23 0-192.347 86.116-192.347 192.347z" fill="#1F2E7E" fill-opacity=".2"/></g></g></g><defs><linearGradient id="paint0_linear_10380_486" x1="437.204" y1="575.384" x2="345.659" y2="199.207" gradientUnits="userSpaceOnUse"><stop offset=".138" stop-opacity="0"/><stop offset="1"/></linearGradient><linearGradient id="paint1_linear_10380_486" x1="277.339" y1="58.761" x2="443.496" y2="305.341" gradientUnits="userSpaceOnUse"><stop stop-color="#98DFFF"/><stop offset=".635" stop-color="#12126B"/><stop offset="1" stop-color="#12126B"/></linearGradient><linearGradient id="paint2_linear_10380_486" x1="311.19" y1="235.837" x2="368.472" y2="320.844" gradientUnits="userSpaceOnUse"><stop stop-color="#98DFFF"/><stop offset=".635" stop-color="#12126B"/><stop offset="1" stop-color="#12126B"/></linearGradient><linearGradient id="paint3_linear_10380_486" x1="240.963" y1="-131.53" x2="524.119" y2="288.682" gradientUnits="userSpaceOnUse"><stop stop-color="#98DFFF"/><stop offset=".635" stop-color="#12126B"/><stop offset="1" stop-color="#12126B"/></linearGradient><filter id="filter0_f_10380_486" x="-24" y="-24" width="706" height="706" filterUnits="userSpaceOnUse" color-interpolation-filters="sRGB"><feFlood flood-opacity="0" result="BackgroundImageFix"/><feBlend in="SourceGraphic" in2="BackgroundImageFix" result="shape"/><feGaussianBlur stdDeviation="12" result="effect1_foregroundBlur_10380_486"/></filter><filter id="filter1_ii_10380_486" x="184.421" y="184.422" width="298.471" height="306.125" filterUnits="userSpaceOnUse" color-interpolation-filters="sRGB"><feFlood flood-opacity="0" result="BackgroundImageFix"/><feBlend in="SourceGraphic" in2="BackgroundImageFix" result="shape"/><feColorMatrix in="SourceAlpha" values="0 0 0 0 0 0 0 0 0 0 0 0 0 0 0 0 0 0 127 0" result="hardAlpha"/><feOffset dy="16.968"/><feGaussianBlur stdDeviation="13.785"/><feComposite in2="hardAlpha" operator="arithmetic" k2="-1" k3="1"/><feColorMatrix values="0 0 0 0 1 0 0 0 0 1 0 0 0 0 1 0 0 0 0.8 0"/><feBlend mode="lighten" in2="shape" result="effect1_innerShadow_10380_486"/><feColorMatrix in="SourceAlpha" values="0 0 0 0 0 0 0 0 0 0 0 0 0 0 0 0 0 0 127 0" result="hardAlpha"/><feOffset dx="9.314" dy="5.433"/><feGaussianBlur stdDeviation="5.433"/><feComposite in2="hardAlpha" operator="arithmetic" k2="-1" k3="1"/><feColorMatrix values="0 0 0 0 0.0705882 0 0 0 0 0.0705882 0 0 0 0 0.419608 0 0 0 0.5 0"/><feBlend mode="multiply" in2="effect1_innerShadow_10380_486" result="effect2_innerShadow_10380_486"/></filter><filter id="filter2_ii_10380_486" x="279.157" y="279.157" width="108.999" height="116.653" filterUnits="userSpaceOnUse" color-interpolation-filters="sRGB"><feFlood flood-opacity="0" result="BackgroundImageFix"/><feBlend in="SourceGraphic" in2="BackgroundImageFix" result="shape"/><feColorMatrix in="SourceAlpha" values="0 0 0 0 0 0 0 0 0 0 0 0 0 0 0 0 0 0 127 0" result="hardAlpha"/><feOffset dy="16.968"/><feGaussianBlur stdDeviation="13.785"/><feComposite in2="hardAlpha" operator="arithmetic" k2="-1" k3="1"/><feColorMatrix values="0 0 0 0 1 0 0 0 0 1 0 0 0 0 1 0 0 0 0.8 0"/><feBlend mode="lighten" in2="shape" result="effect1_innerShadow_10380_486"/><feColorMatrix in="SourceAlpha" values="0 0 0 0 0 0 0 0 0 0 0 0 0 0 0 0 0 0 127 0" result="hardAlpha"/><feOffset dx="9.314" dy="5.433"/><feGaussianBlur stdDeviation="5.433"/><feComposite in2="hardAlpha" operator="arithmetic" k2="-1" k3="1"/><feColorMatrix values="0 0 0 0 0.168627 0 0 0 0 0.180392 0 0 0 0 0.239216 0 0 0 0.9 0"/><feBlend mode="multiply" in2="effect1_innerShadow_10380_486" result="effect2_innerShadow_10380_486"/></filter><filter id="filter3_iif_10380_486" x="55.542" y="55.541" width="546.917" height="546.917" filterUnits="userSpaceOnUse" color-interpolation-filters="sRGB"><feFlood flood-opacity="0" result="BackgroundImageFix"/><feBlend in="SourceGraphic" in2="BackgroundImageFix" result="shape"/><feColorMatrix in="SourceAlpha" values="0 0 0 0 0 0 0 0 0 0 0 0 0 0 0 0 0 0 127 0" result="hardAlpha"/><feOffset dy="16.968"/><feGaussianBlur stdDeviation="13.785"/><feComposite in2="hardAlpha" operator="arithmetic" k2="-1" k3="1"/><feColorMatrix values="0 0 0 0 1 0 0 0 0 1 0 0 0 0 1 0 0 0 0.8 0"/><feBlend mode="lighten" in2="shape" result="effect1_innerShadow_10380_486"/><feColorMatrix in="SourceAlpha" values="0 0 0 0 0 0 0 0 0 0 0 0 0 0 0 0 0 0 127 0" result="hardAlpha"/><feOffset dx="9.314" dy="5.433"/><feGaussianBlur stdDeviation="5.433"/><feComposite in2="hardAlpha" operator="arithmetic" k2="-1" k3="1"/><feColorMatrix values="0 0 0 0 0.168627 0 0 0 0 0.180392 0 0 0 0 0.239216 0 0 0 0.9 0"/><feBlend mode="multiply" in2="effect1_innerShadow_10380_486" result="effect2_innerShadow_10380_486"/><feGaussianBlur stdDeviation="13.537" result="effect3_foregroundBlur_10380_486"/></filter></defs></svg>