<svg width="1086" height="1086" viewBox="0 0 1086 1086" fill="none" xmlns="http://www.w3.org/2000/svg">
<g filter="url(#filter0_f_10380_474)">
<mask id="mask0_10380_474" style="mask-type:alpha" maskUnits="userSpaceOnUse" x="295" y="287" width="496" height="533">
<path fill-rule="evenodd" clip-rule="evenodd" d="M375.159 640.192C422.968 723 528.137 751.452 611.267 703.457C694.581 655.356 722.937 550.161 674.977 467.092C626.946 383.9 521.359 355.608 438.167 403.639L392.042 323.747C519.356 250.242 681.363 293.652 754.868 420.966C828.444 548.402 784.585 709.914 657.393 783.349C530.018 856.889 368.48 813.127 295.267 686.317L375.159 640.192Z" fill="url(#paint0_linear_10380_474)"/>
</mask>
<g mask="url(#mask0_10380_474)">
<g filter="url(#filter1_ii_10380_474)">
<path fill-rule="evenodd" clip-rule="evenodd" d="M375.159 640.192C422.968 723 528.137 751.452 611.267 703.457C694.581 655.356 722.937 550.161 674.977 467.092C626.946 383.9 521.359 355.608 438.167 403.639L392.042 323.747C519.356 250.242 681.363 293.652 754.868 420.966C828.444 548.402 784.585 709.914 657.393 783.349C530.018 856.889 368.48 813.127 295.267 686.317L375.159 640.192Z" fill="url(#paint1_radial_10380_474)"/>
<path fill-rule="evenodd" clip-rule="evenodd" d="M375.159 640.192C422.968 723 528.137 751.452 611.267 703.457C694.581 655.356 722.937 550.161 674.977 467.092C626.946 383.9 521.359 355.608 438.167 403.639L392.042 323.747C519.356 250.242 681.363 293.652 754.868 420.966C828.444 548.402 784.585 709.914 657.393 783.349C530.018 856.889 368.48 813.127 295.267 686.317L375.159 640.192Z" fill="#1F2E7E" fill-opacity="0.2"/>
</g>
</g>
<mask id="mask1_10380_474" style="mask-type:alpha" maskUnits="userSpaceOnUse" x="391" y="420" width="250" height="267">
<path fill-rule="evenodd" clip-rule="evenodd" d="M489.025 573.924C500.426 593.67 525.528 600.305 545.167 588.967L591.292 668.859C527.77 705.533 446.146 684.157 409.133 620.049C371.982 555.702 394.861 474.773 458.143 438.237C521.665 401.562 603.289 422.938 640.302 487.046L560.41 533.172C549.009 513.425 523.907 506.79 504.268 518.129C484.389 529.606 477.762 554.416 489.025 573.924Z" fill="url(#paint2_linear_10380_474)"/>
</mask>
<g mask="url(#mask1_10380_474)">
<g filter="url(#filter2_ii_10380_474)">
<path fill-rule="evenodd" clip-rule="evenodd" d="M489.025 573.924C500.426 593.67 525.528 600.305 545.167 588.967L591.292 668.859C527.77 705.533 446.146 684.157 409.133 620.049C371.982 555.702 394.861 474.773 458.143 438.237C521.665 401.562 603.289 422.938 640.302 487.046L560.41 533.172C549.009 513.425 523.907 506.79 504.268 518.129C484.389 529.606 477.762 554.416 489.025 573.924Z" fill="url(#paint3_radial_10380_474)"/>
<path fill-rule="evenodd" clip-rule="evenodd" d="M489.025 573.924C500.426 593.67 525.528 600.305 545.167 588.967L591.292 668.859C527.77 705.533 446.146 684.157 409.133 620.049C371.982 555.702 394.861 474.773 458.143 438.237C521.665 401.562 603.289 422.938 640.302 487.046L560.41 533.172C549.009 513.425 523.907 506.79 504.268 518.129C484.389 529.606 477.762 554.416 489.025 573.924Z" fill="#1F2E7E" fill-opacity="0.2"/>
</g>
</g>
</g>
<defs>
<filter id="filter0_f_10380_474" x="-20" y="-20" width="1125.99" height="1125.99" filterUnits="userSpaceOnUse" color-interpolation-filters="sRGB">
<feFlood flood-opacity="0" result="BackgroundImageFix"/>
<feBlend mode="normal" in="SourceGraphic" in2="BackgroundImageFix" result="shape"/>
<feGaussianBlur stdDeviation="10" result="effect1_foregroundBlur_10380_474"/>
</filter>
<filter id="filter1_ii_10380_474" x="279.056" y="287.987" width="534.787" height="559.444" filterUnits="userSpaceOnUse" color-interpolation-filters="sRGB">
<feFlood flood-opacity="0" result="BackgroundImageFix"/>
<feBlend mode="normal" in="SourceGraphic" in2="BackgroundImageFix" result="shape"/>
<feColorMatrix in="SourceAlpha" type="matrix" values="0 0 0 0 0 0 0 0 0 0 0 0 0 0 0 0 0 0 127 0" result="hardAlpha"/>
<feOffset dx="-16.2106" dy="28.3685"/>
<feGaussianBlur stdDeviation="34.4475"/>
<feComposite in2="hardAlpha" operator="arithmetic" k2="-1" k3="1"/>
<feColorMatrix type="matrix" values="0 0 0 0 1 0 0 0 0 1 0 0 0 0 1 0 0 0 0.87 0"/>
<feBlend mode="lighten" in2="shape" result="effect1_innerShadow_10380_474"/>
<feColorMatrix in="SourceAlpha" type="matrix" values="0 0 0 0 0 0 0 0 0 0 0 0 0 0 0 0 0 0 127 0" result="hardAlpha"/>
<feOffset dx="23.2753" dy="13.5773"/>
<feGaussianBlur stdDeviation="13.5773"/>
<feComposite in2="hardAlpha" operator="arithmetic" k2="-1" k3="1"/>
<feColorMatrix type="matrix" values="0 0 0 0 0.168627 0 0 0 0 0.180392 0 0 0 0 0.239216 0 0 0 0.9 0"/>
<feBlend mode="multiply" in2="effect1_innerShadow_10380_474" result="effect2_innerShadow_10380_474"/>
</filter>
<filter id="filter2_ii_10380_474" x="375.048" y="420.344" width="288.529" height="294.777" filterUnits="userSpaceOnUse" color-interpolation-filters="sRGB">
<feFlood flood-opacity="0" result="BackgroundImageFix"/>
<feBlend mode="normal" in="SourceGraphic" in2="BackgroundImageFix" result="shape"/>
<feColorMatrix in="SourceAlpha" type="matrix" values="0 0 0 0 0 0 0 0 0 0 0 0 0 0 0 0 0 0 127 0" result="hardAlpha"/>
<feOffset dx="-16.2106" dy="28.3685"/>
<feGaussianBlur stdDeviation="34.4475"/>
<feComposite in2="hardAlpha" operator="arithmetic" k2="-1" k3="1"/>
<feColorMatrix type="matrix" values="0 0 0 0 1 0 0 0 0 1 0 0 0 0 1 0 0 0 0.87 0"/>
<feBlend mode="lighten" in2="shape" result="effect1_innerShadow_10380_474"/>
<feColorMatrix in="SourceAlpha" type="matrix" values="0 0 0 0 0 0 0 0 0 0 0 0 0 0 0 0 0 0 127 0" result="hardAlpha"/>
<feOffset dx="23.2753" dy="13.5773"/>
<feGaussianBlur stdDeviation="13.5773"/>
<feComposite in2="hardAlpha" operator="arithmetic" k2="-1" k3="1"/>
<feColorMatrix type="matrix" values="0 0 0 0 0.168627 0 0 0 0 0.180392 0 0 0 0 0.239216 0 0 0 0.9 0"/>
<feBlend mode="multiply" in2="effect1_innerShadow_10380_474" result="effect2_innerShadow_10380_474"/>
</filter>
<linearGradient id="paint0_linear_10380_474" x1="198.511" y1="380.181" x2="509.88" y2="527.335" gradientUnits="userSpaceOnUse">
<stop offset="0.616767" stop-opacity="0"/>
<stop offset="1"/>
</linearGradient>
<radialGradient id="paint1_radial_10380_474" cx="0" cy="0" r="1" gradientUnits="userSpaceOnUse" gradientTransform="translate(300.382 781.804) rotate(-32.6528) scale(201.091 522.784)">
<stop stop-color="#0A0D50" stop-opacity="0.1"/>
<stop offset="0.635171" stop-color="#12126B" stop-opacity="0.6"/>
<stop offset="1" stop-color="#12126B"/>
</radialGradient>
<linearGradient id="paint2_linear_10380_474" x1="660.318" y1="475.258" x2="485.338" y2="551.63" gradientUnits="userSpaceOnUse">
<stop offset="0.515679" stop-opacity="0"/>
<stop offset="1"/>
</linearGradient>
<radialGradient id="paint3_radial_10380_474" cx="0" cy="0" r="1" gradientUnits="userSpaceOnUse" gradientTransform="translate(411.836 668.264) rotate(-32.6488) scale(101.056 262.326)">
<stop stop-color="#0A0D50" stop-opacity="0.1"/>
<stop offset="0.635171" stop-color="#12126B" stop-opacity="0.6"/>
<stop offset="1" stop-color="#12126B"/>
</radialGradient>
</defs>
</svg>
